HIERARCHY
ROOT Pelvis
{
	OFFSET 0.000000 0.000000 0.000000
	CHANNELS 6 Xposition Yposition Zposition Xrotation Yrotation Zrotation
	JOINT LeftUpLeg_virtual
	{
		OFFSET 0.000000 0.000000 0.000000
		CHANNELS 3 Xrotation Yrotation Zrotation
		JOINT LeftUpLeg
		{
			OFFSET 18.735201 -5.666702 -4.541200
			CHANNELS 3 Xrotation Yrotation Zrotation
			JOINT LeftLeg
			{
				OFFSET -0.021200 -31.938179 0.493100
				CHANNELS 3 Xrotation Yrotation Zrotation
				JOINT LeftFoot
				{
					OFFSET 0.021200 -31.938179 -4.336299
					CHANNELS 3 Xrotation Yrotation Zrotation
					JOINT LeftToeBase
					{
						OFFSET 0.943001 -26.722000 15.023500
						CHANNELS 3 Xrotation Yrotation Zrotation
						End Site
						{
							OFFSET 0 0 0
						}
					}
				}
			}
		}
	}
	JOINT RightUpLeg_virtual
	{
		OFFSET 0.000000 0.000000 0.000000
		CHANNELS 3 Xrotation Yrotation Zrotation
		JOINT RightUpLeg
		{
			OFFSET -18.735201 -5.666702 -4.541200
			CHANNELS 3 Xrotation Yrotation Zrotation
			JOINT RightLeg
			{
				OFFSET 0.018946 -31.938133 0.493100
				CHANNELS 3 Xrotation Yrotation Zrotation
				JOINT RightFoot
				{
					OFFSET -0.018946 -31.938126 -4.336299
					CHANNELS 3 Xrotation Yrotation Zrotation
					JOINT RightToeBase
					{
						OFFSET -0.943001 -26.722004 15.023500
						CHANNELS 3 Xrotation Yrotation Zrotation
						End Site
						{
							OFFSET 0 0 0
						}
					}
				}
			}
		}
	}
	JOINT Hips_virtual
	{
		OFFSET 0.000000 0.000000 0.000000
		CHANNELS 3 Xrotation Yrotation Zrotation
		JOINT Hips
		{
			OFFSET -0.000000 -0.000000 -0.000000
			CHANNELS 3 Xrotation Yrotation Zrotation
			JOINT Spine
			{
				OFFSET 0.000000 10.199997 -0.299500
				CHANNELS 3 Xrotation Yrotation Zrotation
				JOINT Spine1
				{
					OFFSET 0.000000 11.900002 -1.516600
					CHANNELS 3 Xrotation Yrotation Zrotation
					JOINT Spine2
					{
						OFFSET 0.000000 13.600006 -2.842500
						CHANNELS 3 Xrotation Yrotation Zrotation
						JOINT Neck_virtual
						{
							OFFSET 0.000000 0.000000 0.000000
							CHANNELS 3 Xrotation Yrotation Zrotation
							JOINT Neck
							{
								OFFSET 0.000000 9.624100 -2.890100
								CHANNELS 3 Xrotation Yrotation Zrotation
								JOINT Head
								{
									OFFSET 0.000000 14.068802 -1.351900
									CHANNELS 3 Xrotation Yrotation Zrotation
									End Site
									{
										OFFSET 0 0 0
									}
								}
							}
						}
						JOINT LeftShoulder_virtual
						{
							OFFSET 0.000000 0.000000 0.000000
							CHANNELS 3 Xrotation Yrotation Zrotation
							JOINT LeftShoulder
							{
								OFFSET 15.263000 10.923401 -0.547700
								CHANNELS 3 Xrotation Yrotation Zrotation
								JOINT LeftArm
								{
									OFFSET 25.438599 -2.830597 -13.032500
									CHANNELS 3 Xrotation Yrotation Zrotation
									JOINT LeftForeArm
									{
										OFFSET 29.960503 0.000000 0.000000
										CHANNELS 3 Xrotation Yrotation Zrotation
										JOINT LeftHand
										{
											OFFSET 27.849251 0.000000 0.000000
											CHANNELS 3 Xrotation Yrotation Zrotation
											End Site
											{
												OFFSET 0 0 0
											}
										}
									}
								}
							}
						}
						JOINT RightShoulder_virtual
						{
							OFFSET 0.000000 0.000000 0.000000
							CHANNELS 3 Xrotation Yrotation Zrotation
							JOINT RightShoulder
							{
								OFFSET -15.263000 10.923401 -0.547700
								CHANNELS 3 Xrotation Yrotation Zrotation
								JOINT RightArm
								{
									OFFSET -25.438599 -2.830597 -13.032500
									CHANNELS 3 Xrotation Yrotation Zrotation
									JOINT RightForeArm
									{
										OFFSET -29.960503 0.000000 0.000000
										CHANNELS 3 Xrotation Yrotation Zrotation
										JOINT RightHand
										{
											OFFSET -27.849251 0.000000 0.000000
											CHANNELS 3 Xrotation Yrotation Zrotation
											End Site
											{
												OFFSET 0 0 0
											}
										}
									}
								}
							}
						}
					}
				}
			}
		}
	}
}
MOTION
Frames: 5
Frame Time: 0.03333333
0.933730 88.157341 1.708174 0.000000 0.000000 0.000000 1.827141 -10.516131 1.647206 -41.316040 6.583870 19.170703 61.257631 3.752486 -3.564751 7.771913 4.780189 -7.479470 0.000000 0.000000 0.000000 1.913505 2.139476 7.699101 -28.220313 -5.664672 -6.909023 41.692516 -2.834911 -3.869960 -10.176591 -4.159772 3.270694 0.000000 0.000000 0.000000 2.674134 -1.080811 0.616187 9.485469 2.859557 0.458288 11.634149 2.432556 2.340514 5.122727 1.240916 1.075105 0.000000 0.000000 0.000000 5.375529 0.657329 0.086548 0.699492 0.012387 -0.005095 0.000000 0.000000 0.000000 4.830201 0.581797 -0.788100 1.555449 -6.830584 -9.549444 -13.873107 -3.586958 -58.159976 -4.728724 -44.938468 -8.722494 0.000000 0.000000 0.000000 7.113010 1.522911 0.860017 3.589444 12.805543 8.375084 -5.362267 2.890396 50.974129 0.189213 39.735961 4.270662 0.000000 0.000000 0.000000 
1.664626 88.709610 1.475986 0.000000 0.000000 0.000000 1.028291 -11.099528 1.488474 -42.406080 6.320113 19.091530 61.585521 4.133094 -3.411838 7.905971 5.086780 -6.962572 0.000000 0.000000 0.000000 1.916812 2.881362 7.483948 -28.036444 -5.427881 -6.988650 41.140309 -2.906035 -4.454087 -10.740909 -3.948511 2.211593 0.000000 0.000000 0.000000 1.717034 -2.052034 0.076600 11.915423 2.214986 1.521853 11.390015 2.446509 2.291603 5.034482 1.459569 1.408712 0.000000 0.000000 0.000000 5.471225 0.699849 0.198075 0.795364 0.070552 0.114609 0.000000 0.000000 0.000000 4.433643 0.517403 -0.729024 2.143593 -6.785538 -10.218439 -15.622666 -1.442994 -58.371828 -4.969343 -43.836045 -8.698162 0.000000 0.000000 0.000000 6.956573 1.712043 0.845836 3.865759 13.255570 8.845582 -6.749082 0.876966 51.380771 -1.309190 38.928749 5.126112 0.000000 0.000000 0.000000 
0.934487 88.673462 2.858669 0.000000 0.000000 0.000000 0.982042 -9.855161 1.273410 -42.186715 6.675904 18.878668 61.704810 4.031701 -3.209623 8.534775 4.911105 -6.798882 0.000000 0.000000 0.000000 2.371172 2.850834 7.530513 -27.318313 -5.480579 -6.891450 40.409824 -3.424767 -4.581387 -11.333315 -4.417167 1.579965 0.000000 0.000000 0.000000 2.466411 -2.162967 0.778022 9.664151 1.972062 1.526914 12.304642 2.482774 1.317059 4.562450 1.483726 1.419108 0.000000 0.000000 0.000000 5.692669 0.590740 0.142785 0.860915 -0.025539 0.036044 0.000000 0.000000 0.000000 4.584090 0.749265 -0.713118 2.296673 -8.241983 -10.943642 -16.558178 -0.936449 -57.903830 -4.788234 -42.387321 -8.230252 0.000000 0.000000 0.000000 6.934878 1.879489 0.684818 4.270462 12.844148 8.452075 -7.300058 -1.719454 53.226947 -2.203749 34.258945 5.848330 0.000000 0.000000 0.000000 
0.734700 88.952621 2.866728 0.000000 0.000000 0.000000 1.104232 -9.888627 0.970627 -42.331887 6.849709 18.733921 61.478396 3.804221 -2.916654 8.568589 4.536346 -6.580087 0.000000 0.000000 0.000000 2.388905 2.587891 8.014002 -27.049424 -5.666788 -6.238610 39.350410 -3.704599 -4.597600 -12.068213 -4.742967 1.295389 0.000000 0.000000 0.000000 1.431878 -1.890786 0.092822 9.686630 1.122596 0.195810 11.748701 2.107697 2.130001 4.968429 1.671236 1.255703 0.000000 0.000000 0.000000 5.684757 0.554735 0.116678 0.864031 -0.014503 -0.027098 0.000000 0.000000 0.000000 4.960068 0.521620 -0.837624 2.138562 -7.773431 -11.042802 -18.210831 -0.436514 -58.797403 -6.310434 -43.275751 -9.315249 0.000000 0.000000 0.000000 7.127907 2.017571 0.632384 3.913610 12.770000 9.294113 -7.860159 -3.336892 53.857975 -2.575839 34.314239 6.327436 0.000000 0.000000 0.000000 
0.920763 88.936066 2.430275 0.000000 0.000000 0.000000 0.073985 -10.774886 0.457650 -43.179739 6.566380 18.085701 60.824563 3.418707 -2.878506 8.392663 4.131636 -6.883727 0.000000 0.000000 0.000000 3.553722 3.972661 7.995283 -25.194599 -5.448780 -5.982480 38.318068 -3.785149 -4.526005 -13.037727 -4.910600 1.380927 0.000000 0.000000 0.000000 3.075253 -1.153240 0.029348 8.952559 0.241276 1.001400 12.309365 2.571221 1.572207 4.395961 1.718277 1.476932 0.000000 0.000000 0.000000 5.815783 0.709733 0.052275 0.779984 0.094068 -0.077115 0.000000 0.000000 0.000000 5.078760 0.362073 -0.808367 2.196182 -7.998240 -11.838182 -18.048507 -1.256447 -57.574199 -6.146214 -44.182370 -8.966677 0.000000 0.000000 0.000000 6.895000 2.160787 0.738975 4.067296 13.861925 8.987628 -9.042189 -6.044851 53.571919 -3.439393 33.200382 6.595380 0.000000 0.000000 0.000000 
